<svg xmlns="http://www.w3.org/2000/svg" width="200" height="200" class="icon" p-id="5308" t="1720058522549" version="1.1" viewBox="0 0 1024 1024"><path fill="#FECE00" d="M153.6 128h153.6v153.6H153.6z" p-id="5309"/><path fill="#FECE00" d="M768 128h153.6v153.6h-153.6z" p-id="5310"/><path fill="#FFA301" d="M153.6 281.6h153.6v153.6H153.6z" p-id="5311"/><path fill="#FE4900" d="M153.6 588.8h153.6v153.6H153.6z" p-id="5312"/><path fill="#FE4900" d="M460.8 588.8h153.6v153.6H460.8z" p-id="5313"/><path fill="#FE4900" d="M768 588.8h153.6v153.6h-153.6z" p-id="5314"/><path fill="#FFA301" d="M614.4 281.6h153.6v153.6h-153.6z" p-id="5315"/><path fill="#FF6F00" d="M153.6 435.2h153.6v153.6H153.6z" p-id="5316"/><path fill="#FE0107" d="M153.6 742.4h153.6v153.6H153.6z" p-id="5317"/><path fill="#FE0107" d="M768 742.4h153.6v153.6h-153.6z" p-id="5318"/><path fill="#FF6F00" d="M614.4 435.2h153.6v153.6h-153.6z" p-id="5319"/><path fill="#FFA301" d="M307.2 281.6h153.6v153.6H307.2z" p-id="5320"/><path fill="#FFA301" d="M768 281.6h153.6v153.6h-153.6z" p-id="5321"/><path fill="#FF6F00" d="M307.2 435.2h153.6v153.6H307.2z" p-id="5322"/><path fill="#FF6F00" d="M768 435.2h153.6v153.6h-153.6z" p-id="5323"/><path fill="#FF6F00" d="M460.8 435.2h153.6v153.6H460.8z" p-id="5324"/><path fill="#191D1D" d="M102.4 128h51.2v768H102.4z" p-id="5325"/><path fill="#191D1D" d="M716.8 128h51.2v153.6h-51.2z" p-id="5326"/><path fill="#191D1D" d="M563.2 281.6h51.2v153.6h-51.2z" p-id="5327"/><path fill="#191D1D" d="M409.6 588.8h51.2v153.6H409.6z" p-id="5328"/><path fill="#191D1D" d="M716.8 588.8h51.2v307.2h-51.2z" p-id="5329"/></svg>