<svg xmlns="http://www.w3.org/2000/svg" width="22" height="22" fill="none" viewBox="0 0 22 22"><path fill="#FEF3F2" d="M0.5 11C0.5 5.20101 5.20101 0.5 11 0.5C16.799 0.5 21.5 5.20101 21.5 11C21.5 16.799 16.799 21.5 11 21.5C5.20101 21.5 0.5 16.799 0.5 11Z"/><path stroke="#FECDCA" d="M0.5 11C0.5 5.20101 5.20101 0.5 11 0.5C16.799 0.5 21.5 5.20101 21.5 11C21.5 16.799 16.799 21.5 11 21.5C5.20101 21.5 0.5 16.799 0.5 11Z"/><path stroke="#F04438" stroke-linecap="round" stroke-linejoin="round" stroke-width="1.5" d="M14 8L8 14M8 8L14 14"/></svg>