<svg xmlns="http://www.w3.org/2000/svg" width="15" height="15" fill="none" viewBox="0 0 15 15"><g clip-path="url(#clip0_1190_5377)"><path stroke="currentColor" stroke-linecap="round" stroke-linejoin="round" stroke-width="1.689" d="M12.3312 3.32448C12.3312 4.25715 10.063 5.01323 7.26496 5.01323C4.46696 5.01323 2.19873 4.25715 2.19873 3.32448M12.3312 3.32448C12.3312 2.39182 10.063 1.63574 7.26496 1.63574C4.46696 1.63574 2.19873 2.39182 2.19873 3.32448M12.3312 3.32448V11.2053C12.3312 12.1397 10.0795 12.894 7.26496 12.894C4.45039 12.894 2.19873 12.1397 2.19873 11.2053V3.32448M12.3312 7.26488C12.3312 8.19932 10.0795 8.95362 7.26496 8.95362C4.45039 8.95362 2.19873 8.19932 2.19873 7.26488"/></g><defs><clipPath id="clip0_1190_5377"><rect width="13.51" height="13.51" fill="#fff" transform="translate(0.51001 0.509888)"/></clipPath></defs></svg>