<svg xmlns="http://www.w3.org/2000/svg" xmlns:xlink="http://www.w3.org/1999/xlink" width="28" height="28" version="1.1" viewBox="0 0 28 28"><title>favicon_y19_28x28_custom</title><desc>Created with Sketch.</desc><defs><polygon id="path-1" points=".171 .093 9.446 .093 9.446 9.924 .171 9.924"/></defs><g id="favicon_y19_28x28_custom" fill="none" fill-rule="evenodd" stroke="none" stroke-width="1"><rect width="28" height="28" x="0" y="0" fill="#6001D2"/><g id="y!" transform="translate(5.000000, 6.000000)"><polygon id="Fill-1" fill="#FFF" points="9.708 5 7.046 11.42 4.407 5 0 5 4.912 16.027 3.144 20 7.459 20 14 5"/><g id="!" transform="translate(12.000000, 0.000000)"><path id="Fill-2" fill="#FFF" d="M2.88747609,10.8773778 C1.30283696,10.8773778 0.114280435,12.0684889 0.114280435,13.4547111 C0.114280435,14.8184889 1.25660652,15.9449333 2.79421522,15.9449333 C4.37917174,15.9449333 5.56741087,14.7756 5.56741087,13.3678222 C5.56741087,11.9818222 4.42580217,10.8773778 2.88747609,10.8773778"/><g id="Group-6" transform="translate(1.434783, 0.000000)"><mask id="mask-2" fill="#fff"><use xlink:href="#path-1"/></mask><polygon id="Fill-4" fill="#FFF" points="4.552 .093 .171 9.924 5.065 9.924 9.446 .093" mask="url(#mask-2)"/></g></g></g></g></svg>